<svg width="127" height="21" viewBox="0 0 127 21" fill="none" xmlns="http://www.w3.org/2000/svg">
<path d="M38.0575 5.50678C41.3475 5.50678 45.948 7.98974 45.0279 14.5459H34.9069C35.4088 16.0524 36.7192 16.8335 38.4757 16.8335C40.2601 16.8335 40.8178 16.443 41.8215 16.0245L44.2472 18.3679C42.9647 19.6234 41.236 20.544 38.3084 20.544C34.7117 20.544 30.418 18.0611 30.418 13.0672C30.418 7.98974 34.7675 5.50678 38.0575 5.50678ZM38.0575 9.27306C36.8028 9.27306 35.5203 9.99842 34.9627 11.4491H41.1245C40.6784 9.99842 39.3122 9.27306 38.0575 9.27306ZM54.2846 0.401367C57.7976 0.401367 59.9445 2.57744 61.004 4.41874L57.714 6.39953C56.6266 5.00461 55.6786 4.36294 54.2846 4.36294C53.0856 4.36294 52.1934 5.0604 52.1934 6.03685C52.1934 7.04119 52.7511 7.54336 54.1451 8.01763L55.4556 8.49191C60.0003 10.0821 61.5616 12.0908 61.5616 14.6854C61.5616 18.7585 57.714 20.6835 54.3682 20.6835C50.7994 20.6835 48.067 18.5632 47.0911 15.8571L50.5205 14.0158C51.2176 15.2712 52.2492 16.6382 54.3682 16.6382C55.818 16.6382 56.9054 16.0524 56.9054 14.7412C56.9054 13.5415 56.2363 12.9836 54.1451 12.2024L53.0299 11.8118C50.1581 10.7796 47.7324 9.41255 47.7324 5.84156C47.7324 2.66114 50.7436 0.401367 54.2846 0.401367ZM72.8536 5.53467C75.5582 5.53467 78.3184 7.34807 78.3184 11.9513V20.265H73.9131V12.2582C73.9131 10.0542 73.1603 9.35676 71.7663 9.35676C69.7867 9.35676 68.6435 11.2817 68.3647 12.1187V20.265H63.9594V0.540859H68.3647V8.26872C68.6435 7.57126 70.1213 5.53467 72.8536 5.53467ZM85.4003 0.540859V4.25135H80.995V0.540859H85.4003ZM85.4003 5.75786V20.265H80.995V5.75786H85.4003ZM95.4377 5.50678C98.7277 5.50678 103.328 7.98974 102.408 14.5459H92.2871C92.7889 16.0524 94.0994 16.8335 95.8559 16.8335C97.6403 16.8335 98.1979 16.443 99.2017 16.0245L101.627 18.3679C100.345 19.6234 98.6162 20.544 95.6886 20.544C92.0919 20.544 87.7981 18.0611 87.7981 13.0672C87.7981 7.98974 92.1477 5.50678 95.4377 5.50678ZM95.4377 9.27306C94.183 9.27306 92.9005 9.99842 92.3428 11.4491H98.5046C98.0585 9.99842 96.6924 9.27306 95.4377 9.27306ZM109.323 0.540859V20.265H104.917V0.540859H109.323ZM122.594 0.540859H127V7.62706V20.265H122.594V18.8143C122.399 19.3165 121.089 20.544 118.858 20.544C115.54 20.544 111.72 18.1727 111.72 12.9836C111.72 7.98974 115.54 5.50678 118.858 5.50678C121.089 5.50678 122.399 6.7901 122.594 7.09699V0.540859ZM119.499 16.6661C121.312 16.6661 122.789 15.4107 122.789 12.9836C122.789 10.6401 121.312 9.38466 119.499 9.38466C117.603 9.38466 115.986 10.668 115.986 12.9836C115.986 15.3828 117.603 16.6661 119.499 16.6661Z" fill="#3A76EA"/>
<path fill-rule="evenodd" clip-rule="evenodd" d="M17.9601 20.9439H24.3039C23.7481 20.1102 23.002 19.0388 22.2176 17.9124C20.3727 15.2629 18.3156 12.3088 18.0231 11.4268C17.8634 10.9455 17.7518 10.5144 17.7068 10.206L17.697 10.21C17.5729 10.2606 17.2941 10.3741 16.916 10.4191C16.2309 10.5005 15.5868 10.1421 15.6583 9.22875C15.6409 9.23838 15.6235 9.24832 15.6058 9.25844C15.5113 9.31246 15.4075 9.37177 15.2445 9.4192C14.189 9.72634 13.7046 8.31747 14.267 7.67774C13.8842 7.42243 13.5752 6.92281 13.6413 6.3521C13.722 5.65645 14.1064 5.31615 14.6903 4.86762C14.3599 4.8008 13.8481 4.23852 14.1611 3.25414C14.1441 3.19861 14.1278 3.14472 14.112 3.09279C14.0708 2.95682 14.0337 2.8344 13.9998 2.73174C13.9156 2.47712 13.8207 2.28106 13.5125 2.33355C13.0928 2.40504 12.8802 2.74924 12.8802 3.31634C12.8802 3.88661 13.1905 4.50735 13.4722 5.07077C13.5676 5.26148 13.6596 5.44562 13.7352 5.61902C13.2949 5.14124 12.6063 4.17158 12.7078 3.03426C12.6067 2.96731 12.2647 2.76594 12.0106 3.1322C11.9817 3.48235 11.9191 3.78783 11.8043 4.16519C11.8259 4.32444 11.8525 4.49846 11.8803 4.68008C11.9612 5.20838 12.0519 5.80101 12.0574 6.28146C12.0588 6.40758 11.9034 6.72841 11.9181 6.44736C11.946 5.91637 11.8105 5.14603 11.6583 4.57217C11.5663 4.74862 11.462 4.86779 11.3625 4.98145C11.1852 5.18413 11.0232 5.36929 10.9733 5.83053C10.902 6.4895 10.8117 7.61027 10.8117 7.97532C10.8117 8.17107 10.8916 8.435 10.9743 8.70859C11.0459 8.94524 11.1197 9.18911 11.1458 9.40233C11.1669 9.57379 11.1809 9.72207 11.194 9.8615C11.233 10.2753 11.2647 10.6112 11.4521 11.2442C11.1598 10.7962 11.0524 10.1046 11.0206 9.5517C11.0206 9.5517 10.68 9.29324 10.3941 9.02067C10.2295 8.86371 10.1428 8.77363 10.0178 8.64377C9.90141 8.52285 9.75184 8.36744 9.47525 8.09143C8.87662 7.49407 8.2727 7.54327 8.12491 7.95872C8.32828 8.39543 8.47864 8.60748 8.60817 8.79016C8.67377 8.88267 8.73402 8.96765 8.79312 9.07046C8.8516 9.18791 8.86911 9.31513 8.88781 9.45092C8.92606 9.72863 8.96924 10.0422 9.37783 10.3813C9.69304 10.643 9.98015 10.9124 10.2456 11.1614C10.6368 11.5284 10.981 11.8513 11.299 12.0407C11.5748 12.205 11.9068 12.3469 12.2336 12.4866C12.6725 12.6742 13.102 12.8578 13.3733 13.0861C13.7054 13.3655 13.9964 13.9063 14.3231 14.5136C14.4621 14.7719 14.6076 15.0422 14.7655 15.3097C15.1888 16.0267 17.0208 19.207 17.9601 20.9439ZM8.37233 20.9439H2.12891C2.19129 20.8496 2.26108 20.7521 2.33863 20.6512C5.66707 16.3194 7.07067 14.6832 7.75391 13.8868C8.09628 13.4877 8.25777 13.2995 8.38994 13.0885C8.49538 12.9203 8.60375 12.7528 8.7104 12.588C9.12241 11.9513 9.50874 11.3543 9.60138 10.9035C9.78495 11.0315 9.99167 11.2294 10.2193 11.4473C10.6303 11.8408 11.1095 12.2995 11.6437 12.5299C11.7963 12.5956 11.94 12.6554 12.0752 12.7117C12.8074 13.0165 13.289 13.217 13.5651 13.6916C13.1792 13.6896 12.9325 13.7815 12.7095 13.8646C12.6222 13.8971 12.5385 13.9283 12.4515 13.952C12.6351 13.9868 12.7739 13.9935 12.8957 13.9993C12.9952 14.0041 13.0834 14.0083 13.1757 14.0269C10.6907 17.783 10.2637 18.484 9.77815 19.1418C9.48543 19.5383 9.1714 19.919 8.37233 20.9439ZM17.9311 10.087C17.9285 10.1929 17.9394 10.2717 17.9877 10.2772C18.0038 10.279 18.0241 10.2726 18.0494 10.2564C18.321 10.0825 18.6641 9.80319 18.8571 9.59244C18.9956 9.44122 19.305 8.84892 19.0899 8.35726C18.8704 7.85565 18.3782 7.72121 18.1047 7.87128C17.7997 8.03863 16.8545 8.52178 16.3737 8.75868C16.1036 8.89173 15.7269 9.11429 15.9147 9.65807C16.1935 10.4658 17.1299 10.391 18.4608 9.58572C18.4355 9.61087 18.4117 9.63454 18.3893 9.65689C18.1574 9.88748 18.0682 9.97621 17.9311 10.087ZM10.1565 8.51243C10.4053 8.77366 10.6517 9.03234 10.9756 9.28389C10.9195 9.1201 10.8651 8.98747 10.8158 8.86718C10.6392 8.43674 10.5274 8.16426 10.6331 7.1873C10.6718 6.8292 10.695 6.55378 10.714 6.32959C10.7548 5.8458 10.7755 5.6006 10.8882 5.27788C10.8882 5.27788 10.459 5.36579 10.0507 4.9803C10.653 5.1276 11.4737 5.14448 11.7799 3.51832C12.0862 1.89216 10.7671 1.43626 10.3384 2.73174C10.2064 3.13072 10.0583 3.2069 9.91908 3.27855C9.78553 3.34727 9.66009 3.41182 9.56467 3.75301C9.46128 4.12269 9.43607 4.3928 9.4086 4.68719C9.38427 4.9478 9.35817 5.22744 9.27449 5.61202C9.25756 5.68985 9.23082 5.76318 9.20181 5.84276C9.09104 6.1466 8.94711 6.54139 9.18905 7.62432C9.5914 7.91919 9.87548 8.21743 10.1565 8.51243ZM14.574 7.65991C13.9986 8.22101 14.4302 9.23676 15.0675 9.22703C15.1586 9.22564 15.2538 9.20334 15.3509 9.15577C15.5322 9.06696 15.8143 8.8916 16.0869 8.7221C16.3609 8.55178 16.6253 8.38739 16.7684 8.3227C16.8039 8.30665 16.8473 8.28793 16.8969 8.26656C17.2458 8.11604 17.9008 7.83351 18.2647 7.41925C18.6804 6.94616 18.6985 6.87671 18.7471 6.30457C18.8027 5.64983 18.1103 5.28471 17.8616 5.28241C17.7838 5.34532 17.6486 5.47163 17.4813 5.62789C17.182 5.90735 16.7802 6.28262 16.4211 6.56238C15.7465 7.08782 15.3152 7.27591 15.0159 7.40645C14.8242 7.49005 14.6867 7.55004 14.574 7.65991ZM14.2484 5.5302C13.4918 6.40942 13.9992 7.37389 14.4914 7.3853C14.5519 7.38671 14.6121 7.37377 14.6697 7.3445C14.6852 7.33662 14.7021 7.32811 14.7201 7.31898C15.1543 7.09932 16.3039 6.51777 17.1262 5.66867C17.202 5.59038 17.2726 5.5187 17.3383 5.45201C17.7579 5.02631 17.9774 4.80362 18.0678 4.35682C18.16 3.90152 17.8509 3.54596 17.608 3.26656C17.576 3.22975 17.5452 3.19426 17.5166 3.16004C17.3446 2.95454 16.8459 2.78842 16.6394 3.08968C16.5754 3.18316 16.5082 3.28388 16.4386 3.38823C16.007 4.03512 15.4826 4.82122 15.0333 4.88395C14.6725 5.14104 14.4246 5.32546 14.2484 5.5302ZM14.8615 4.67031C14.8769 4.67162 14.8922 4.67216 14.9074 4.67202C15.287 4.66735 15.6081 4.20296 15.8733 3.81936C15.9379 3.7259 15.9992 3.63724 16.0572 3.56119C16.3582 3.16661 16.8296 2.48835 16.65 2.14132C16.4479 1.75112 16.2101 1.3331 15.5084 1.49389C15.2638 1.54992 15.1442 1.7403 14.9768 2.03364C14.9244 2.12559 14.8673 2.20831 14.8066 2.29626C14.6736 2.48886 14.5234 2.70655 14.3665 3.10134C14.0066 4.00701 14.4239 4.63264 14.8615 4.67031ZM14.2061 2.82532C14.2226 2.87827 14.2396 2.93281 14.2567 2.98879C14.4201 2.50331 14.6032 2.2421 14.7677 2.00733C14.8435 1.89911 14.9154 1.79651 14.9796 1.68016C14.514 1.09781 14.077 1.50696 14.0508 2.14179C14.044 2.30548 14.1179 2.54247 14.2061 2.82532Z" fill="#3A76EA"/>
<rect x="0.299805" width="5.81592" height="20.9459" fill="#3A76EA"/>
<rect x="21.7852" width="5.81592" height="20.9459" fill="#3A76EA"/>
</svg>
