<svg width="32" height="33" viewBox="0 0 32 33" fill="none" xmlns="http://www.w3.org/2000/svg">
<path d="M12.4579 32.4381C12.9829 32.4261 13.4866 32.2305 13.8801 31.8859C14.2736 31.5413 14.5314 31.07 14.6079 30.5552H10.2246C10.3033 31.084 10.5732 31.5664 10.984 31.9128C11.3948 32.2591 11.9186 32.4458 12.4579 32.4381Z" fill="#A39F9F"/>
<path d="M24.8333 27.3592L24.55 27.1115C23.7462 26.4018 23.0426 25.5879 22.4583 24.6918C21.8202 23.4552 21.4377 22.1047 21.3333 20.7196V16.64C21.3299 16.1445 21.2854 15.6501 21.2 15.1618C19.7884 14.8743 18.5205 14.1122 17.6108 13.0046C16.7012 11.8969 16.2057 10.5118 16.2083 9.08372V8.56345C15.3383 8.13913 14.4035 7.8601 13.4417 7.73762V6.69708C13.4417 6.40469 13.3245 6.12427 13.1158 5.91751C12.9072 5.71076 12.6242 5.5946 12.3292 5.5946C12.0341 5.5946 11.7511 5.71076 11.5425 5.91751C11.3339 6.12427 11.2167 6.40469 11.2167 6.69708V7.77891C9.0631 8.07997 7.09214 9.14297 5.66768 10.7717C4.24322 12.4003 3.46144 14.4847 3.46667 16.64V20.7196C3.3623 22.1047 2.97981 23.4552 2.34167 24.6918C1.7674 25.5857 1.07516 26.3994 0.283333 27.1115L0 27.3592V29.6881H24.8333V27.3592Z" fill="#A39F9F"/>
<circle cx="24.5" cy="7.5" r="7.5" fill="#F80E0E"/>
</svg>
