<svg width="183" height="48" viewBox="0 0 183 48" fill="none" xmlns="http://www.w3.org/2000/svg">
<path d="M38.662 26.9534C38.4959 26.6996 38.2883 26.4458 38.1221 26.192C36.8763 24.4579 36.6686 22.5969 37.3331 20.5245C38.3298 17.4369 37.5407 12.15 35.7965 9.44316C35.6719 9.23168 35.5058 9.0625 35.3812 8.89332C35.7965 9.82381 36.2533 10.712 36.544 11.6848C36.8763 12.6576 36.9593 13.715 36.2949 14.6878C36.2949 9.57004 33.3463 6.99004 29.0272 5.552C31.8512 6.60938 34.0938 8.34348 35.049 11.5156C35.5473 13.292 35.2981 15.7451 34.426 17.1832C34.426 16.7179 34.426 16.4219 34.426 16.1258C34.7583 12.1923 32.9725 9.44316 29.6917 7.49758C27.1999 6.05954 25.4142 5.46741 21.3858 5.97495C18.2711 6.35561 15.5717 7.62446 13.4122 9.9507C9.84064 13.715 9.54993 19.8901 12.7892 23.9927C12.9138 24.1619 13.0799 24.331 13.2045 24.5002C14.1597 25.4307 15.6548 26.4881 15.6548 26.4881C15.6963 26.5304 15.7378 26.5727 15.7793 26.5727C21.8426 29.8294 27.4076 25.3884 28.4873 23.2737C28.4873 23.2737 28.4873 23.2737 28.4873 23.2314C29.6917 20.9897 30.0654 18.7058 29.3594 16.295C28.4873 13.292 26.4939 11.431 23.8776 10.6697C24.6251 11.2196 25.7049 11.854 26.5354 12.6999C29.2764 15.576 28.9026 20.0592 28.3212 21.6242C28.2382 21.8356 28.1551 22.0048 28.1136 22.174C25.954 26.6996 19.3509 27.7147 17.0252 26.1074H16.9837H16.9422C16.9422 26.1074 16.9006 26.1074 16.9006 26.0652C15.0318 25.1347 13.2876 23.0199 13.2876 23.0199H13.246C13.163 22.893 13.0799 22.7661 12.9969 22.6392C10.5051 18.9173 11.2526 13.3766 14.6165 10.2891C19.1017 6.18643 25.7049 6.18643 30.107 10.2891C32.308 12.3615 33.2632 15.0261 33.0556 18.0291C32.9725 19.594 32.7649 22.5547 30.2316 26.6996C29.8993 27.2071 29.5256 27.8415 29.1103 28.4337C28.072 29.8294 27.0338 31.1406 25.954 32.494C23.836 35.1163 23.9191 38.1616 26.2863 40.5301C27.3245 41.5452 28.5289 42.3911 29.6502 43.3216C29.7332 43.237 29.7747 43.1947 29.8578 43.1101C29.5671 42.7294 29.2349 42.3065 28.9442 41.9258C28.0305 40.657 27.4491 39.3458 27.7398 37.7386C27.989 36.4698 28.2797 36.2583 29.4425 36.6812C30.4392 37.0196 31.4359 37.358 32.4326 37.6117C32.931 37.7386 33.5124 37.6963 34.0523 37.6117C35.2981 37.358 35.8796 36.3429 35.7134 35.074C35.6719 34.6934 35.755 34.1858 35.9626 33.8475C36.2533 33.3822 36.3779 33.0016 36.2118 32.4094C36.1287 32.1979 36.3364 31.7327 36.544 31.6058C37.0009 31.352 37.167 31.056 37.0839 30.5484C37.0009 29.9986 37.25 29.6179 37.7484 29.4065C37.873 29.3642 37.9976 29.2796 38.1221 29.195C39.2434 28.5183 39.368 27.9684 38.662 26.9534Z" fill="#3A76EA"/>
<path d="M25.1238 13.1651C26.8265 14.9838 27.0757 16.5487 26.785 18.5366C26.4112 21.032 24.9161 22.0471 24.9161 22.0471C21.8014 24.6694 16.9425 23.4851 15.9458 20.0169C15.3644 18.0291 15.7381 16.295 17.2332 14.8992C18.6452 13.5458 20.3064 13.2074 22.1337 13.9687C24.044 14.7723 25.0407 16.9294 24.5424 18.875C24.044 20.7782 22.3413 21.9625 20.3479 21.751C18.7283 21.5819 17.4409 20.0592 17.3993 18.3251C17.3993 16.7179 18.6037 15.3645 20.2233 15.1953C21.6769 15.0261 23.0058 16.1258 23.255 17.6907C23.4626 19.0441 22.5074 20.2707 21.1785 20.5245C20.0157 20.736 18.8529 19.9323 18.6037 18.7481C18.3545 17.6061 19.019 16.591 20.1403 16.3373C20.8878 16.1681 21.4277 16.4218 21.8845 17.014C22.2167 17.4792 22.0091 17.9868 21.9676 18.0291C21.5938 18.6212 20.7632 19.0019 20.0572 18.8327C19.725 18.7481 19.3512 18.3251 19.7665 17.9022C19.4343 18.0291 19.1851 18.5366 19.8496 18.8327C20.6386 19.2133 21.5938 18.9173 22.1337 18.3251C22.6736 17.733 22.632 16.8448 21.7184 16.2527C20.8878 15.7451 20.1818 15.7451 19.3512 16.2104C18.4791 16.7179 18.1469 17.5215 18.2299 18.4943C18.3545 20.0169 19.6419 21.032 21.137 20.8628C22.7566 20.6514 23.8779 19.2133 23.6703 17.5638C23.4626 15.9566 22.2583 14.7723 20.7217 14.6877C18.9774 14.6032 17.4409 15.7028 17.0256 17.3946C16.6518 19.0864 17.3578 20.8205 18.8113 21.751C20.2649 22.6815 22.3413 22.4701 23.7118 21.2858C25.2899 19.9323 25.7467 17.5638 24.7916 15.6605C23.7948 13.6304 21.5107 12.5307 19.3097 13.0382C17.0671 13.5458 15.4059 15.3222 15.0737 17.6484C14.7414 19.8055 15.8627 22.5124 17.7316 23.4851C22.1337 25.8537 25.5806 22.5124 25.7883 22.3432C27.9063 20.1438 28.0724 15.1107 25.1238 13.1651Z" fill="#3A76EA"/>
<path d="M5.43807 26.6573C5.60419 26.4035 5.81184 26.1498 5.97795 25.896C7.22384 24.1619 7.43148 22.3009 6.76701 20.2284C5.77031 17.1409 6.55937 11.854 8.3036 9.1471C8.42819 8.93563 8.59431 8.76645 8.71889 8.59727C8.3036 9.52776 7.84678 10.416 7.55607 11.3887C7.22384 12.3615 7.14078 13.4189 7.80525 14.3917C7.76372 9.23169 10.7538 6.65169 15.0729 5.21365C12.2489 6.31333 9.96477 8.08972 9.05113 11.2196C8.55278 12.996 8.80195 15.4491 9.67407 16.8871C9.67407 16.4219 9.67407 16.1258 9.67407 15.8297C9.34183 11.8963 11.1276 9.1471 14.4084 7.20153C17.0248 5.6789 21.1362 4.95988 25.2476 5.80579C28.3208 6.44021 30.6879 10.1199 27.947 8.51268C25.1645 6.86316 18.3952 5.80579 13.9931 9.95071C11.7921 12.0232 10.8369 14.6878 11.0445 17.6907C11.1276 19.2556 11.3352 22.2163 13.8685 26.3612C14.2008 26.8688 14.5745 27.5032 14.9898 28.0953C16.0281 29.4911 17.0663 30.8022 18.1461 32.1557C20.2641 34.778 20.181 37.8232 17.8138 40.1917C16.7756 41.2068 15.5712 42.0527 14.4499 42.9832C14.3669 42.8986 14.3254 42.8563 14.2423 42.7717C14.533 42.3911 14.8652 41.9681 15.1559 41.5875C16.0696 40.3186 16.651 39.0075 16.3603 37.4003C16.1111 36.1314 15.8204 35.9199 14.6576 36.3429C13.6609 36.6812 12.6642 37.0196 11.6675 37.2734C11.1691 37.4003 10.5877 37.358 10.0478 37.2734C8.80195 37.0196 8.22054 36.0045 8.38666 34.7357C8.42819 34.355 8.34513 33.8475 8.13748 33.5091C7.84678 33.0439 7.72219 32.6632 7.88831 32.0711C7.97136 31.8596 7.76372 31.3944 7.55607 31.2675C7.09925 31.0137 6.93313 30.7176 7.01619 30.2101C7.09925 29.6602 6.85007 29.2796 6.35172 29.0681C6.22713 29.0258 6.10254 28.9412 5.97795 28.8566C4.85666 28.2222 4.73207 27.6724 5.43807 26.6573Z" fill="#3A76EA"/>
<path d="M77.5191 13.9709L70.9231 34.3273H67.5823L63.0993 22.1716L58.6448 34.3273H55.304L48.708 13.9709H53.5622L57.16 25.2541L61.2718 13.9709H64.9268L69.0671 25.2541L72.6649 13.9709H77.5191ZM87.199 18.9436C90.5684 18.9436 95.2798 21.5318 94.3375 28.3658H83.9724C84.4863 29.9361 85.8284 30.7504 87.6273 30.7504C89.4548 30.7504 90.0258 30.3433 91.0538 29.9071L93.538 32.3498C92.2245 33.6585 90.4541 34.6181 87.456 34.6181C83.7725 34.6181 79.3751 32.0299 79.3751 26.8245C79.3751 21.5318 83.8296 18.9436 87.199 18.9436ZM87.199 22.8695C85.914 22.8695 84.6006 23.6256 84.0295 25.1378H90.3399C89.8831 23.6256 88.4839 22.8695 87.199 22.8695ZM103.817 13.6219C107.415 13.6219 109.614 15.8902 110.699 17.8095L107.33 19.8742C106.216 18.4202 105.245 17.7513 103.817 17.7513C102.59 17.7513 101.676 18.4784 101.676 19.4962C101.676 20.5431 102.247 21.0665 103.675 21.5609L105.017 22.0553C109.671 23.7129 111.27 25.8067 111.27 28.5112C111.27 32.757 107.33 34.7635 103.903 34.7635C100.248 34.7635 97.4499 32.5534 96.4505 29.7326L99.9627 27.8132C100.677 29.1219 101.733 30.5468 103.903 30.5468C105.388 30.5468 106.502 29.9361 106.502 28.5693C106.502 27.3189 105.816 26.7373 103.675 25.923L102.533 25.5159C99.5915 24.4399 97.1073 23.0149 97.1073 19.2926C97.1073 15.9774 100.191 13.6219 103.817 13.6219ZM122.835 18.9727C125.604 18.9727 128.431 20.863 128.431 25.6613V34.3273H123.92V25.9812C123.92 23.6838 123.149 22.9568 121.721 22.9568C119.694 22.9568 118.523 24.9633 118.237 25.8358V34.3273H113.726V13.7673H118.237V21.8226C118.523 21.0956 120.036 18.9727 122.835 18.9727ZM135.684 19.2054V34.3273H131.172V19.2054H135.684ZM145.963 18.9436C149.333 18.9436 154.044 21.5318 153.102 28.3658H142.737C143.251 29.9361 144.593 30.7504 146.392 30.7504C148.219 30.7504 148.79 30.3433 149.818 29.9071L152.302 32.3498C150.989 33.6585 149.219 34.6181 146.22 34.6181C142.537 34.6181 138.14 32.0299 138.14 26.8245C138.14 21.5318 142.594 18.9436 145.963 18.9436ZM145.963 22.8695C144.678 22.8695 143.365 23.6256 142.794 25.1378H149.104C148.647 23.6256 147.248 22.8695 145.963 22.8695ZM160.183 13.7673V34.3273H155.672V13.7673H160.183ZM173.775 13.7673H178.287V21.1538V34.3273H173.775V32.8151C173.575 33.3386 172.233 34.6181 169.949 34.6181C166.551 34.6181 162.639 32.1463 162.639 26.7373C162.639 21.5318 166.551 18.9436 169.949 18.9436C172.233 18.9436 173.575 20.2814 173.775 20.6012V13.7673ZM170.606 30.5759C172.462 30.5759 173.975 29.2673 173.975 26.7373C173.975 24.2945 172.462 22.9859 170.606 22.9859C168.664 22.9859 167.008 24.3236 167.008 26.7373C167.008 29.2382 168.664 30.5759 170.606 30.5759Z" fill="#535353"/>
<g clip-path="url(#clip0_139_495)">
<path d="M134.836 5.4014C135.036 5.4014 135.228 5.48069 135.369 5.62184C135.511 5.76299 135.59 5.95443 135.59 6.15404V9.1646H138.609C138.809 9.1646 139.001 9.2439 139.142 9.38505C139.284 9.52619 139.363 9.71763 139.363 9.91724V12.9278C139.363 13.1274 139.284 13.3189 139.142 13.46C139.001 13.6012 138.809 13.6804 138.609 13.6804H135.59V16.691C135.59 16.8906 135.511 17.0821 135.369 17.2232C135.228 17.3644 135.036 17.4437 134.836 17.4437H131.818C131.618 17.4437 131.426 17.3644 131.284 17.2232C131.143 17.0821 131.063 16.8906 131.063 16.691V13.6804H128.045C127.845 13.6804 127.653 13.6012 127.511 13.46C127.37 13.3189 127.29 13.1274 127.29 12.9278V9.91724C127.29 9.71763 127.37 9.52619 127.511 9.38505C127.653 9.2439 127.845 9.1646 128.045 9.1646H131.063V6.15404C131.063 5.95443 131.143 5.76299 131.284 5.62184C131.426 5.48069 131.618 5.4014 131.818 5.4014H134.836Z" fill="#3A76EA"/>
</g>
<defs>
<clipPath id="clip0_139_495">
<rect width="12.8778" height="12.8451" fill="white" transform="matrix(-1 0 0 1 139.766 5)"/>
</clipPath>
</defs>
</svg>
