<svg width="32" height="32" viewBox="0 0 32 32" fill="none" xmlns="http://www.w3.org/2000/svg">
<path d="M14.0003 22C15.0509 22 16.0912 21.7931 17.0618 21.391C18.0324 20.989 18.9143 20.3997 19.6572 19.6568C20.4001 18.914 20.9893 18.0321 21.3914 17.0614C21.7934 16.0908 22.0003 15.0506 22.0003 14C22.0003 12.9494 21.7934 11.9091 21.3914 10.9385C20.9893 9.96791 20.4001 9.08599 19.6572 8.34313C18.9143 7.60026 18.0324 7.01098 17.0618 6.60894C16.0912 6.20691 15.0509 5.99998 14.0003 5.99998C11.8786 5.99998 9.84378 6.84283 8.34349 8.34313C6.8432 9.84342 6.00035 11.8782 6.00035 14C6.00035 16.1217 6.8432 18.1565 8.34349 19.6568C9.84378 21.1571 11.8786 22 14.0003 22ZM22.427 20.5413L27.2003 25.3146C27.3276 25.4377 27.4291 25.5849 27.4988 25.7477C27.5686 25.9104 27.6052 26.0854 27.6067 26.2624C27.6081 26.4394 27.5742 26.615 27.5071 26.7788C27.4399 26.9426 27.3408 27.0914 27.2155 27.2165C27.0902 27.3416 26.9413 27.4405 26.7774 27.5074C26.6135 27.5744 26.4379 27.608 26.2609 27.6063C26.0838 27.6046 25.9089 27.5677 25.7463 27.4977C25.5836 27.4278 25.4366 27.3261 25.3137 27.1986L20.5403 22.4253C18.397 24.0891 15.7001 24.8735 12.9987 24.6189C10.2973 24.3643 7.79449 23.0897 5.99975 21.0547C4.20501 19.0197 3.25326 16.3772 3.33825 13.6652C3.42323 10.9532 4.53857 8.37548 6.45721 6.45684C8.37584 4.53821 10.9535 3.42287 13.6656 3.33788C16.3776 3.25289 19.0201 4.20464 21.0551 5.99938C23.0901 7.79412 24.3646 10.2969 24.6193 12.9983C24.8739 15.6997 24.0895 18.3966 22.4257 20.54L22.427 20.5413Z" fill="#A39F9F"/>
</svg>
