<svg width="64" height="52" viewBox="0 0 64 52" fill="none" xmlns="http://www.w3.org/2000/svg">
<path d="M15.3752 0.5625C15.3752 0.5625 7.96962 4.72617 8.25017 7.6875C8.48827 10.2002 14.8371 10.5447 15.3752 13.0312C15.6587 14.3418 13.0002 16.5938 13.0002 16.5938C13.0002 16.5938 20.1252 13.769 20.1252 11.25C20.1252 8.73098 13.772 8.35792 13.0002 5.90625C12.425 4.07891 15.3752 0.5625 15.3752 0.5625ZM27.2502 0.5625C27.2502 0.5625 19.8446 4.72617 20.1252 7.6875C20.3633 10.2002 26.7121 10.5447 27.2502 13.0312C27.5337 14.3418 24.8752 16.5938 24.8752 16.5938C24.8752 16.5938 32.0002 13.769 32.0002 11.25C32.0002 8.73098 25.647 8.35792 24.8752 5.90625C24.3 4.07891 27.2502 0.5625 27.2502 0.5625ZM39.1252 0.5625C39.1252 0.5625 31.7196 4.72617 32.0002 7.6875C32.2383 10.2002 38.5871 10.5447 39.1252 13.0312C39.4087 14.3418 36.7502 16.5938 36.7502 16.5938C36.7502 16.5938 43.8752 13.769 43.8752 11.25C43.8752 8.73098 37.522 8.35792 36.7502 5.90625C36.175 4.07891 39.1252 0.5625 39.1252 0.5625ZM4.8796 19.377C5.09187 26.4962 7.69145 39.3528 15.9689 45.873H38.5314C46.8089 39.3528 49.4086 26.4962 49.6207 19.377H4.8796ZM52.3199 19.4265C52.2923 20.4454 52.2232 21.5698 52.1014 22.7727C56.2418 23.1801 59.4611 25.8498 59.4611 29.0625C59.4611 32.5553 55.6572 35.4082 51.0002 35.4082C50.3624 35.4079 49.7268 35.3531 49.1055 35.2451C48.6733 36.3161 48.1888 37.3787 47.6449 38.4191C48.7394 38.6381 49.8674 38.7486 51.0002 38.748C58.1482 38.748 63.9142 34.4235 63.9142 29.0625C63.9142 24.0357 58.8447 19.9202 52.3198 19.4265H52.3199ZM0.347805 47.877C0.5715 48.4551 0.919882 49.1238 1.38019 49.6994C1.77162 50.1886 2.2248 50.6131 2.63122 50.8772C3.03734 51.1411 3.35173 51.2168 3.50017 51.2168H51.0002C51.1486 51.2168 51.463 51.1413 51.8693 50.8772C52.2757 50.6131 52.7287 50.1886 53.1203 49.6994C53.5805 49.1238 53.929 48.4551 54.1527 47.877H0.347656H0.347805Z" fill="#716A6A"/>
</svg>
