<svg width="45" height="50" viewBox="0 0 45 50" fill="none" xmlns="http://www.w3.org/2000/svg">
<path d="M29.1211 33.2588C29.1211 34.8585 28.9551 36.6907 28.6231 38.7554C28.0176 42.7547 27.4805 45.6657 27.0117 47.4887C26.5821 49.1628 25.0977 49.9998 22.5586 49.9998C20.0196 49.9998 18.5352 49.1628 18.1055 47.4887C17.6367 45.6657 17.0996 42.7547 16.4942 38.7554C16.1621 36.7093 15.9961 34.8771 15.9961 33.2588C15.9961 30.1338 18.1836 28.5713 22.5586 28.5713C26.9336 28.5713 29.1211 30.1338 29.1211 33.2588ZM45 21.4284C45 25.8927 43.6914 29.9291 41.0742 33.5378C38.4571 37.1464 35.0391 39.7506 30.8203 41.3503C30.6641 41.4061 30.5176 41.3782 30.3809 41.2666C30.2442 41.155 30.1856 41.0154 30.2051 40.848C30.3418 39.9552 30.4395 39.3413 30.4981 39.0065C30.5762 38.4113 30.6348 37.9742 30.6739 37.6951C30.6934 37.5277 30.7813 37.4161 30.9375 37.3603C34.043 35.8536 36.5381 33.6773 38.4229 30.8313C40.3076 27.9853 41.25 24.851 41.25 21.4284C41.25 18.0802 40.3614 15.0063 38.584 12.2069C36.8067 9.40738 34.3946 7.22639 31.3477 5.66389C28.3008 4.10139 25.0098 3.41314 21.4746 3.59916C19.0528 3.72936 16.7383 4.2967 14.5313 5.30117C12.3242 6.30563 10.4346 7.61236 8.86233 9.22137C7.29007 10.8304 6.04007 12.7091 5.11233 14.8575C4.1846 17.006 3.7305 19.2428 3.75003 21.5679C3.76956 24.9905 4.73636 28.1202 6.65042 30.9569C8.56448 33.7935 11.0742 35.9466 14.1797 37.4161C14.3164 37.4719 14.4043 37.5835 14.4434 37.7509C14.502 38.1416 14.5606 38.5601 14.6192 39.0065C14.6387 39.1739 14.6875 39.4762 14.7657 39.9133C14.8438 40.3505 14.9024 40.6806 14.9414 40.9038C14.961 41.0713 14.8975 41.2108 14.751 41.3224C14.6045 41.434 14.4532 41.4526 14.2969 41.3782C11.4063 40.2993 8.85745 38.7229 6.65042 36.6488C4.44339 34.5748 2.74905 32.1194 1.56741 29.2828C0.385771 26.4461 -0.126925 23.4745 0.0293254 20.3681C0.166044 17.7082 0.810575 15.1644 1.96292 12.737C3.11526 10.3095 4.62405 8.1983 6.48929 6.40329C8.35452 4.60827 10.5518 3.14343 13.0811 2.00875C15.6104 0.874082 18.2715 0.22304 21.0645 0.0556294C24.2676 -0.130382 27.3487 0.302095 30.3076 1.35306C33.2666 2.40403 35.8155 3.89678 37.9541 5.8313C40.0928 7.76582 41.8018 10.0956 43.0811 12.8207C44.3604 15.5458 45 18.415 45 21.4284ZM29.1211 20.5355C29.1211 22.2655 28.4815 23.7396 27.2022 24.958C25.9229 26.1764 24.375 26.7855 22.5586 26.7855C20.7422 26.7855 19.1944 26.1764 17.9151 24.958C16.6358 23.7396 15.9961 22.2655 15.9961 20.5355C15.9961 18.8056 16.6358 17.3315 17.9151 16.1131C19.1944 14.8947 20.7422 14.2855 22.5586 14.2855C24.375 14.2855 25.9229 14.8947 27.2022 16.1131C28.4815 17.3315 29.1211 18.8056 29.1211 20.5355ZM37.5586 21.4284C37.5586 23.6977 37.0362 25.8229 35.9912 27.804C34.9463 29.785 33.5157 31.4358 31.6992 32.7565C31.543 32.8681 31.3867 32.8867 31.2305 32.8123C31.0742 32.7379 30.9766 32.6077 30.9375 32.4217C30.8203 31.4544 30.5371 30.5988 30.0879 29.8547C29.9512 29.6687 29.9805 29.4827 30.1758 29.2967C31.3086 28.2922 32.1973 27.1111 32.8418 25.7532C33.4864 24.3953 33.8086 22.9537 33.8086 21.4284C33.8086 19.3637 33.2373 17.4663 32.0948 15.7364C30.9522 14.0065 29.4141 12.6905 27.4805 11.7883C25.5469 10.8862 23.4766 10.5467 21.2696 10.7699C18.6719 11.0489 16.4356 12.0999 14.5606 13.9228C12.6856 15.7457 11.6211 17.8942 11.3672 20.3681C11.1719 22.0794 11.4014 23.7163 12.0557 25.2788C12.71 26.8413 13.6719 28.1806 14.9414 29.2967C15.1367 29.4827 15.166 29.6687 15.0293 29.8547C14.5606 30.6174 14.2774 31.4823 14.1797 32.4496C14.1407 32.617 14.043 32.7379 13.8867 32.8123C13.7305 32.8867 13.5742 32.8681 13.418 32.7565C11.5625 31.38 10.1123 29.678 9.06741 27.6505C8.02249 25.623 7.51956 23.4466 7.55862 21.1215C7.61722 18.6847 8.29104 16.4154 9.58011 14.3134C10.8692 12.2115 12.5977 10.5234 14.7657 9.24927C16.9336 7.97509 19.2871 7.28219 21.8262 7.17058C24.6387 7.04038 27.2559 7.59841 29.6778 8.84469C32.0996 10.091 34.0186 11.8348 35.4346 14.0763C36.8506 16.3177 37.5586 18.7684 37.5586 21.4284Z" fill="#716A6A"/>
</svg>
