<svg width="60" height="60" viewBox="0 0 60 60" fill="none" xmlns="http://www.w3.org/2000/svg">
<path d="M0 49.9712C0.311184 48.7872 0.717779 47.6626 1.56913 46.7758C3.03698 45.2555 4.77639 44.7159 6.72423 45.2618C8.67206 45.8076 9.94469 47.1684 10.4496 49.2501C11.3538 52.9757 8.71023 56.4448 5.10225 56.3228C3.92426 56.2771 2.79412 55.8146 1.89035 55.0082C0.986576 54.2018 0.360691 53.0976 0.111557 51.8699C0.0832246 51.7744 0.0458468 51.6821 0 51.5946L0 49.9712Z" fill="#716A6A"/>
<path d="M57.2241 41.7609C54.9122 41.0602 52.6899 41.2557 50.5674 42.4209C48.9905 43.2798 47.703 44.6397 46.883 46.3123C45.217 49.625 45.4592 54.1811 48.6547 57.5735C47.5087 58.9252 45.9317 59.7743 44.2306 59.9556C42.5617 60.1527 41.0307 59.685 39.5937 58.7841C37.7457 57.6251 35.8727 56.5115 34.0291 55.3432C31.7495 53.9027 31.4383 50.823 33.4052 49.1151C34.487 48.1766 35.7362 47.9186 37.0161 48.5708C38.1728 49.1604 39.2693 49.8815 40.4568 50.5822L47.4687 37.6458C46.5043 37.0499 45.5517 36.4587 44.5976 35.8706C43.3455 35.0995 42.6644 33.9531 42.6806 32.4047C42.7143 29.7896 45.3844 27.8892 47.5583 29.092C50.095 30.4654 52.5517 32.0005 54.9151 33.6888C57.0861 35.27 58.1606 38.5201 57.2241 41.7609Z" fill="#716A6A"/>
<path d="M12.5437 37.6497L19.5571 50.5923C20.5449 49.9902 21.4961 49.3943 22.4605 48.8249C24.0032 47.9131 25.5298 48.0633 26.7378 49.2253C28.373 50.7894 28.2702 53.6454 26.456 54.9764C25.2817 55.8335 24.0238 56.5498 22.7864 57.3053C21.6546 57.9982 20.5347 58.7208 19.3589 59.3214C16.6933 60.6821 13.3936 59.936 11.3782 57.579C14.3653 54.0442 15.0963 50.1497 12.8754 45.8767C11.8964 43.9998 10.3698 42.7204 8.47187 41.9572C6.65783 41.2166 4.66354 41.1434 2.80596 41.7491C1.82838 38.9573 2.82945 35.2395 5.17801 33.5973C7.47226 31.9941 9.87514 30.5458 12.2824 29.1506C13.9205 28.2028 15.9359 28.9395 16.846 30.6208C17.3015 31.4341 17.4451 32.4033 17.2469 33.3265C17.0486 34.2498 16.5238 35.056 15.7818 35.5774C14.7616 36.3203 13.6519 36.9443 12.5437 37.6497Z" fill="#716A6A"/>
<path d="M38.6039 7.71777C41.5837 8.36842 43.9748 11.2932 44.0526 14.5027C44.1172 17.2054 44.1025 19.9112 44.0658 22.6139C44.0585 23.0988 43.9616 23.5774 43.7806 24.0223C43.5995 24.4672 43.3379 24.8697 43.0107 25.2067C42.6834 25.5438 42.2971 25.8087 41.8736 25.9865C41.4502 26.1642 40.998 26.2512 40.543 26.2425C39.6263 26.2354 38.7483 25.8479 38.0955 25.1622C37.4427 24.4765 37.0664 23.5466 37.0465 22.5701C37.0245 21.3188 37.0465 20.0801 37.0465 18.7913H22.9684C22.9684 20.016 22.9787 21.2359 22.9684 22.4559C22.9449 24.7113 21.2789 26.3661 19.1666 26.2347C17.4962 26.1346 15.9814 24.5705 15.9565 22.7938C15.9154 20.0066 15.8919 17.2163 15.9667 14.4323C16.0519 11.2604 18.509 8.3043 21.4066 7.72872C22.7776 12.2817 25.6149 15.0079 30.1843 14.9234C34.5615 14.8483 37.2726 12.1472 38.6039 7.71777Z" fill="#716A6A"/>
<path d="M59.9994 50.8034C59.9994 53.8127 57.5891 56.3371 54.743 56.3199C51.7721 56.3027 49.3486 53.8174 49.3516 50.7956C49.3516 47.6675 51.6899 45.1165 54.4817 45.0649C57.6244 45.0055 60.0346 47.8114 59.9994 50.8034Z" fill="#716A6A"/>
<path d="M30.0058 3.19322e-05C31.0539 -0.00144311 32.0786 0.329192 32.9499 0.949904C33.8211 1.57061 34.4995 2.45336 34.8987 3.48592C35.2979 4.51848 35.3999 5.65421 35.1918 6.74872C34.9837 7.84322 34.4749 8.84707 33.7299 9.63263C32.985 10.4182 32.0377 10.95 31.0084 11.1604C29.9792 11.3708 28.9144 11.2504 27.9495 10.8143C26.9847 10.3783 26.1633 9.6464 25.5898 8.71167C25.0163 7.77695 24.7166 6.68163 24.7289 5.56496C24.7386 4.08221 25.2994 2.66399 26.2884 1.62094C27.2775 0.577886 28.6142 -0.00497018 30.0058 3.19322e-05Z" fill="#716A6A"/>
</svg>
