<svg width="55" height="55" viewBox="0 0 55 55" fill="none" xmlns="http://www.w3.org/2000/svg">
<path d="M21.3983 52.0836C20.1938 48.1557 18.3767 45.2274 15.947 43.2989C12.3024 40.406 6.51161 42.2039 4.37255 39.2201C2.2335 36.2362 5.8712 30.749 7.14772 27.5112C8.42423 24.2736 2.25496 23.1287 2.97521 22.2096C3.4554 21.5968 6.57292 19.8286 12.3279 16.9049C13.963 7.57962 20.0029 2.91699 30.4476 2.91699C46.1145 2.91699 52.0832 16.1993 52.0832 24.6473C52.0832 33.0953 44.8558 42.1964 34.5603 44.1588C33.6397 45.4996 34.9675 48.1412 38.5437 52.0836" stroke="#716A6A" stroke-width="4.667" stroke-linecap="round" stroke-linejoin="round"/>
<path fill-rule="evenodd" clip-rule="evenodd" d="M21.9681 15.8232C21.165 18.9383 21.404 21.1256 22.6849 22.3851C23.9658 23.6448 26.1489 24.4684 29.2343 24.8562C28.5343 28.874 29.3878 30.7589 31.7946 30.5109C34.2016 30.2628 35.6477 29.2628 36.1332 27.5105C39.8948 28.5677 41.9335 27.6829 42.2493 24.8562C42.7231 20.6161 40.4367 17.2337 39.4993 17.2337C38.5618 17.2337 36.1332 17.1196 36.1332 15.8232C36.1332 14.5267 33.2963 13.7942 30.7359 13.7942C28.1756 13.7942 29.7165 12.0684 26.2007 12.7503C23.8568 13.2048 22.446 14.2291 21.9681 15.8232Z" fill="#3A76EA" stroke="#716A6A" stroke-width="4" stroke-linejoin="round"/>
<path d="M35.4894 29.3442C34.2395 30.12 32.5242 31.4096 31.8019 32.4172C29.9964 34.9363 28.5319 36.4702 28.2114 38.0813" stroke="#716A6A" stroke-width="4" stroke-linecap="round"/>
</svg>
