<svg width="45" height="57" viewBox="0 0 45 57" fill="none" xmlns="http://www.w3.org/2000/svg">
<path d="M0.231689 0.269043H44.6125V43.0026C44.6125 50.378 38.6336 56.3569 31.2583 56.3569H13.5859C6.21058 56.3569 0.231689 50.378 0.231689 43.0026V0.269043Z" fill="#E0E0E0"/>
<path d="M38.2724 28.3132C38.2724 37.1635 30.9731 44.3383 21.9692 44.3383C12.9653 44.3383 5.66602 37.1635 5.66602 28.3132C5.66602 19.4629 12.9653 12.2881 21.9692 12.2881C30.9731 12.2881 38.2724 19.4629 38.2724 28.3132Z" fill="#FFCC4D"/>
<path d="M27.6998 33.3184C27.5612 33.2008 27.3665 33.1768 27.2008 33.2569L23.5778 35.0375C21.8832 35.8699 17.485 35.8806 17.4406 35.8806C17.1906 35.8806 16.9877 36.08 16.9877 36.3257C16.9877 36.4904 17.0792 36.6347 17.2142 36.7112V36.7121H17.2151V36.713C17.2794 36.7486 17.3537 36.7691 17.4325 36.7709H23.7798C26.1873 36.7709 27.4834 34.8256 27.833 33.7955C27.8909 33.6246 27.8384 33.4368 27.6998 33.3184ZM33.7447 26.5326C33.4684 26.5326 33.1976 26.4098 33.0192 26.1765C30.6271 23.0418 27.5295 22.9724 27.3982 22.9715C26.9001 22.9661 26.4979 22.5655 26.5006 22.0767C26.5034 21.5862 26.9055 21.1909 27.4036 21.1909C27.5703 21.1909 31.513 21.2354 34.4684 25.1082C34.7691 25.5017 34.6875 26.0599 34.2872 26.3546C34.1242 26.4747 33.934 26.5326 33.7447 26.5326ZM10.1938 26.5326C10.0055 26.5326 9.81434 26.4747 9.65131 26.3546C9.25098 26.0599 9.17037 25.5017 9.47016 25.1082C12.4247 21.2354 16.3682 21.1909 16.5349 21.1909C17.0348 21.1909 17.4406 21.5898 17.4406 22.0812C17.4406 22.5717 17.0376 22.9697 16.5385 22.9715C16.3972 22.9733 13.3059 23.048 10.9184 26.1765C10.7418 26.4098 10.4692 26.5326 10.1938 26.5326ZM20.0645 27.7755C20.0853 27.7292 20.1179 27.69 20.1306 27.6383C20.252 27.1612 19.9567 26.6777 19.4722 26.5584C19.3091 26.5184 15.4263 25.5969 12.4102 27.5716C11.9944 27.844 11.8821 28.3969 12.1593 28.8064C12.3332 29.0646 12.6203 29.2035 12.9128 29.2035C13.0849 29.2035 13.2597 29.1545 13.4146 29.0539C14.4037 28.4049 15.554 28.1681 16.5557 28.1093C16.5476 28.177 16.5349 28.2437 16.5349 28.3132C16.5349 29.2961 17.3464 30.0937 18.3463 30.0937C19.3463 30.0937 20.1578 29.2961 20.1578 28.3132C20.1578 28.1244 20.1198 27.9464 20.0645 27.7755ZM30.9324 27.7746C30.9532 27.7283 30.9858 27.69 30.9985 27.6392C31.1208 27.162 30.8255 26.6786 30.34 26.5593C30.177 26.5193 26.295 25.5978 23.278 27.5725C22.8614 27.8449 22.7491 28.3978 23.0272 28.8073C23.2011 29.0646 23.4891 29.2035 23.7816 29.2035C23.9537 29.2035 24.1285 29.1545 24.2834 29.0539C25.2725 28.4049 26.4218 28.169 27.4254 28.1102C27.4172 28.1779 27.4036 28.2437 27.4036 28.3132C27.4036 29.2961 28.2152 30.0937 29.2151 30.0937C30.215 30.0937 31.0266 29.2961 31.0266 28.3132C31.0266 28.1244 30.9885 27.9455 30.9324 27.7746Z" fill="#664500"/>
</svg>
