<svg width="45" height="57" viewBox="0 0 45 57" fill="none" xmlns="http://www.w3.org/2000/svg">
<path d="M0.0131836 0.269043H44.394V43.0026C44.394 50.378 38.4151 56.3569 31.0398 56.3569H13.3674C5.99208 56.3569 0.0131836 50.378 0.0131836 43.0026V0.269043Z" fill="#F0F9FF"/>
<path d="M38.0538 28.3132C38.0538 37.1635 30.7546 44.3383 21.7507 44.3383C12.7468 44.3383 5.44751 37.1635 5.44751 28.3132C5.44751 19.4629 12.7468 12.2881 21.7507 12.2881C30.7546 12.2881 38.0538 19.4629 38.0538 28.3132Z" fill="#FFCC4D"/>
<path d="M11.7877 32.7646C14.2888 32.7646 16.3163 30.7717 16.3163 28.3132C16.3163 25.8548 14.2888 23.8618 11.7877 23.8618C9.28658 23.8618 7.25903 25.8548 7.25903 28.3132C7.25903 30.7717 9.28658 32.7646 11.7877 32.7646Z" fill="#FF7892"/>
<path d="M31.7137 32.7646C34.2148 32.7646 36.2424 30.7717 36.2424 28.3132C36.2424 25.8548 34.2148 23.8618 31.7137 23.8618C29.2126 23.8618 27.1851 25.8548 27.1851 28.3132C27.1851 30.7717 29.2126 32.7646 31.7137 32.7646Z" fill="#FF7892"/>
<path d="M30.2058 31.5439C30.0445 31.4005 29.8036 31.3916 29.6306 31.5181C29.5953 31.5439 26.0783 34.0999 21.7507 34.0999C17.434 34.0999 13.9053 31.5439 13.8709 31.5181C13.6979 31.3916 13.457 31.4023 13.2957 31.5439C13.1354 31.6863 13.0992 31.9214 13.2106 32.103C13.3274 32.2944 16.1243 36.7707 21.7507 36.7707C27.3772 36.7707 30.175 32.2944 30.2909 32.103C30.4023 31.9205 30.367 31.6863 30.2058 31.5439V31.5439ZM12.6925 25.6422C12.5567 25.6422 12.4181 25.6119 12.2886 25.5478C11.8411 25.3279 11.66 24.7929 11.8837 24.3531C11.9308 24.2605 13.0775 22.0811 16.3164 22.0811C19.5562 22.0811 20.7019 24.2614 20.749 24.3539C20.9727 24.7937 20.7916 25.3288 20.3441 25.5487C19.8985 25.7668 19.3614 25.5923 19.1341 25.1605C19.0951 25.0893 18.3823 23.8616 16.3164 23.8616C14.2178 23.8616 13.5095 25.1374 13.5032 25.1499C13.3447 25.4623 13.0249 25.6422 12.6925 25.6422V25.6422ZM30.809 25.6422C30.4766 25.6422 30.1568 25.4623 29.9974 25.1499C29.9748 25.1089 29.2674 23.8616 27.1851 23.8616C25.1029 23.8616 24.3955 25.1089 24.3665 25.1614C24.131 25.5897 23.5885 25.7579 23.1483 25.5354C22.709 25.311 22.5306 24.7884 22.7516 24.3531C22.7987 24.2614 23.9453 22.0811 27.1851 22.0811C30.4249 22.0811 31.5716 24.2614 31.6187 24.3539C31.8424 24.7937 31.6613 25.3288 31.2138 25.5487C31.0834 25.6119 30.9448 25.6422 30.809 25.6422V25.6422Z" fill="#664500"/>
</svg>
