<svg width="19" height="25" viewBox="0 0 19 25" fill="none" xmlns="http://www.w3.org/2000/svg">
<path d="M7.62842 15.2285L9.95726 16.5731L5.22813 24.7642L3.87077 21.737L7.62842 15.2285Z" fill="#0A2446"/>
<path d="M7.62842 15.2285L5.29958 13.884L0.570445 22.0751L3.87077 21.737L7.62842 15.2285Z" fill="#0A2446"/>
<path d="M10.9497 15.2285L8.62087 16.5731L13.35 24.7642L14.7074 21.737L10.9497 15.2285Z" fill="#0A2446"/>
<path d="M10.9497 15.2285L13.2785 13.884L18.0077 22.0751L14.7074 21.737L10.9497 15.2285Z" fill="#0A2446"/>
<circle cx="9.28386" cy="9.58903" r="8.51775" fill="#E3E3E3" stroke="#0A2446"/>
<circle cx="9.28494" cy="9.58866" r="6.25858" fill="#0A2446"/>
<mask id="mask0_445_8217" style="mask-type:alpha" maskUnits="userSpaceOnUse" x="3" y="3" width="13" height="14">
<circle cx="9.61885" cy="10.2575" r="6.27314" fill="#C28B37"/>
</mask>
<g mask="url(#mask0_445_8217)">
<circle cx="9.28584" cy="9.58955" r="6.27314" fill="#0A2446"/>
</g>
<path d="M9.31841 5.22461L10.6716 7.93102L13.378 8.26932L11.5196 10.3533L12.0248 13.3438L9.31841 11.9906L6.61199 13.3438L7.1217 10.3533L5.25879 8.26932L7.9652 7.93102L9.31841 5.22461Z" fill="#F2994A"/>
</svg>
