<svg width="19" height="25" viewBox="0 0 19 25" fill="none" xmlns="http://www.w3.org/2000/svg">
<path d="M7.6283 15.2285L9.95714 16.5731L5.228 24.7642L3.87065 21.737L7.6283 15.2285Z" fill="#0A2446"/>
<path d="M7.6283 15.2285L5.29945 13.884L0.570323 22.0751L3.87065 21.737L7.6283 15.2285Z" fill="#0A2446"/>
<path d="M10.9499 15.2285L8.62105 16.5731L13.3502 24.7642L14.7075 21.737L10.9499 15.2285Z" fill="#0A2446"/>
<path d="M10.9499 15.2285L13.2787 13.884L18.0079 22.0751L14.7075 21.737L10.9499 15.2285Z" fill="#0A2446"/>
<circle cx="9.28392" cy="9.58903" r="8.51775" fill="#E3E3E3" stroke="#0A2446"/>
<circle cx="9.28476" cy="9.58866" r="6.25858" fill="#0A2446"/>
<mask id="mask0_526_6361" style="mask-type:alpha" maskUnits="userSpaceOnUse" x="3" y="3" width="13" height="14">
<circle cx="9.61878" cy="10.257" r="6.27314" fill="#C28B37"/>
</mask>
<g mask="url(#mask0_526_6361)">
<circle cx="9.28566" cy="9.58906" r="6.27314" fill="#0A2446"/>
</g>
<path d="M9.31834 5.22461L10.6716 7.93102L13.378 8.26932L11.5196 10.3533L12.0248 13.3438L9.31834 11.9906L6.61193 13.3438L7.12164 10.3533L5.25873 8.26932L7.96514 7.93102L9.31834 5.22461Z" fill="#3AB6EA"/>
</svg>
