<svg width="45" height="57" viewBox="0 0 45 57" fill="none" xmlns="http://www.w3.org/2000/svg">
<path d="M0.513184 0.269043H44.894V43.0026C44.894 50.378 38.9151 56.3569 31.5398 56.3569H13.8674C6.49208 56.3569 0.513184 50.378 0.513184 43.0026V0.269043Z" fill="#FFDCDC"/>
<path d="M38.5541 28.3132C38.5541 37.1635 31.2548 44.3383 22.2509 44.3383C13.248 44.3383 5.94775 37.1635 5.94775 28.3132C5.94775 19.4638 13.248 12.2881 22.2509 12.2881C31.2548 12.2881 38.5541 19.4638 38.5541 28.3132Z" fill="#FFCC4D"/>
<path d="M16.3637 30.5391C17.6142 30.5391 18.628 29.144 18.628 27.4231C18.628 25.7022 17.6142 24.3071 16.3637 24.3071C15.1131 24.3071 14.0994 25.7022 14.0994 27.4231C14.0994 29.144 15.1131 30.5391 16.3637 30.5391Z" fill="#664500"/>
<path d="M28.1381 30.5391C29.3887 30.5391 30.4024 29.144 30.4024 27.4231C30.4024 25.7022 29.3887 24.3071 28.1381 24.3071C26.8876 24.3071 25.8738 25.7022 25.8738 27.4231C25.8738 29.144 26.8876 30.5391 28.1381 30.5391Z" fill="#664500"/>
<path d="M11.3811 24.307C11.1927 24.307 11.0016 24.2492 10.8386 24.129C10.4382 23.8343 10.3576 23.2761 10.6574 22.8826C13.6119 19.0098 17.5555 18.9653 17.7221 18.9653C18.2221 18.9653 18.6279 19.3642 18.6279 19.8556C18.6279 20.3462 18.2248 20.7441 17.7257 20.7459C17.5854 20.7477 14.4941 20.8225 12.1066 23.9509C11.9291 24.1842 11.6564 24.307 11.3811 24.307ZM33.1205 24.307C32.8442 24.307 32.5734 24.1842 32.395 23.9509C30.0029 20.8162 26.9053 20.7468 26.774 20.7459C26.2759 20.7406 25.8737 20.3399 25.8764 19.8512C25.8791 19.3606 26.2813 18.9653 26.7794 18.9653C26.9461 18.9653 30.8887 19.0098 33.8441 22.8826C34.1448 23.2761 34.0633 23.8343 33.663 24.129C33.5 24.2492 33.3098 24.307 33.1205 24.307ZM27.2187 37.5535C27.2088 37.5144 26.1817 33.655 22.2508 33.655C18.3199 33.655 17.2928 37.5144 17.2828 37.5535C17.2348 37.7432 17.3227 37.9373 17.493 38.0379C17.6633 38.1376 17.8852 38.1144 18.0328 37.9844C18.0409 37.9773 18.9503 37.2161 22.2508 37.2161C25.5024 37.2161 26.4325 37.9551 26.4679 37.9844C26.5539 38.0646 26.6662 38.1064 26.7794 38.1064C26.8555 38.1064 26.9325 38.0877 27.0023 38.0494C27.1798 37.9497 27.2685 37.7476 27.2187 37.5535Z" fill="#664500"/>
<path d="M20.4394 39.8867C20.4394 42.3457 18.4124 44.3381 15.9107 44.3381C13.4091 44.3381 11.3821 42.3457 11.3821 39.8867C11.3821 37.4278 15.005 30.9839 15.9107 30.9839C16.8165 30.9839 20.4394 37.4278 20.4394 39.8867Z" fill="#5DADEC"/>
</svg>
